<svg id="svg" xmlns="http://www.w3.org/2000/svg" xmlns:xlink="http://www.w3.org/1999/xlink" width="400" height="400" viewBox="0, 0, 400,400" version="1.1"><g id="svgg"><path id="path0" d="M273.365 92.127 C 271.471 93.073,271.141 94.501,271.116 101.869 C 271.094 108.106,271.078 108.222,270.313 107.813 C 269.783 107.529,269.531 107.525,269.531 107.799 C 269.531 108.061,267.270 108.203,263.092 108.203 L 256.653 108.203 255.404 109.319 C 254.254 110.346,252.994 114.977,253.935 114.719 C 254.077 114.680,254.553 115.088,254.991 115.625 C 255.786 116.598,255.817 116.602,263.441 116.722 L 271.094 116.843 271.094 123.304 C 271.094 130.485,271.461 131.985,273.471 133.025 C 275.355 133.999,277.033 133.756,278.439 132.306 L 279.688 131.017 279.688 123.914 L 279.688 116.810 286.899 116.816 C 294.750 116.823,295.202 116.718,296.328 114.627 C 296.831 113.693,296.908 113.047,296.654 111.879 C 296.472 111.039,296.339 110.139,296.358 109.879 C 296.377 109.618,296.281 109.435,296.145 109.471 C 296.010 109.506,295.349 109.243,294.677 108.884 C 293.681 108.353,292.184 108.224,286.572 108.185 L 279.688 108.137 279.688 101.353 C 279.688 97.142,279.520 94.201,279.246 93.599 C 278.443 91.837,275.447 91.087,273.365 92.127 M122.364 112.933 C 116.716 113.874,110.667 117.751,107.641 122.370 C 107.259 122.953,106.762 123.317,106.538 123.178 C 106.313 123.040,106.237 123.100,106.368 123.313 C 106.500 123.525,106.056 125.091,105.383 126.791 C 104.275 129.589,104.143 130.384,103.990 135.156 C 103.891 138.259,103.638 140.662,103.375 140.993 C 103.033 141.426,103.042 141.489,103.418 141.263 C 103.728 141.076,103.906 141.200,103.906 141.602 C 103.906 141.949,103.746 142.135,103.550 142.013 C 103.146 141.763,103.218 142.802,103.635 143.218 C 104.044 143.627,103.961 145.233,103.516 145.508 C 103.301 145.641,103.125 145.925,103.125 146.140 C 103.125 146.355,103.301 146.422,103.516 146.289 C 103.730 146.156,103.906 146.420,103.906 146.875 C 103.906 147.330,103.730 147.594,103.516 147.461 C 103.294 147.324,103.125 147.652,103.125 148.219 C 103.125 148.769,103.274 149.219,103.456 149.219 C 103.639 149.219,103.824 150.466,103.869 151.990 C 103.923 153.853,103.815 154.677,103.537 154.506 C 103.311 154.365,103.125 154.422,103.125 154.632 C 103.125 154.842,103.345 155.102,103.613 155.210 C 104.004 155.368,104.004 155.413,103.613 155.438 C 103.345 155.455,103.125 155.655,103.125 155.882 C 103.125 156.110,103.301 156.187,103.516 156.055 C 103.771 155.897,103.906 158.264,103.906 162.868 C 103.906 166.747,103.760 169.922,103.581 169.922 C 103.402 169.922,103.255 170.186,103.255 170.508 C 103.255 170.830,103.402 171.094,103.581 171.094 C 103.760 171.094,103.906 175.147,103.906 180.101 C 103.906 187.194,103.802 189.050,103.418 188.833 C 103.027 188.612,103.027 188.662,103.418 189.083 C 103.687 189.373,103.904 190.146,103.900 190.801 C 103.896 191.714,103.806 191.855,103.516 191.406 C 103.192 190.906,103.136 190.920,103.131 191.504 C 103.128 191.880,103.296 192.188,103.505 192.188 C 103.749 192.188,103.928 206.979,104.005 233.301 C 104.136 278.778,103.956 275.576,106.656 280.361 C 107.306 281.513,107.716 282.667,107.567 282.927 C 107.418 283.186,107.423 283.285,107.578 283.147 C 107.940 282.824,109.787 284.656,109.664 285.215 C 109.612 285.448,109.904 285.694,110.312 285.762 C 110.721 285.830,111.160 286.035,111.289 286.217 C 111.575 286.623,115.458 289.453,115.727 289.453 C 115.833 289.453,116.601 289.750,117.433 290.113 C 118.265 290.476,119.033 290.789,119.141 290.808 C 119.248 290.827,120.391 291.066,121.680 291.339 C 123.536 291.731,139.023 291.810,196.094 291.718 L 268.164 291.602 270.703 290.697 C 272.100 290.200,274.185 289.233,275.338 288.549 C 276.490 287.864,277.589 287.349,277.779 287.402 C 277.969 287.456,278.081 287.366,278.027 287.202 C 277.974 287.038,278.553 286.290,279.316 285.541 C 282.438 282.475,284.411 278.819,285.358 274.350 C 286.394 269.462,286.199 151.101,285.153 149.408 C 283.077 146.050,277.341 147.118,277.345 150.861 C 277.346 151.569,277.302 179.310,277.248 212.508 L 277.148 272.868 275.863 275.480 C 273.848 279.572,270.250 282.180,265.782 282.786 C 264.575 282.950,232.186 283.049,193.806 283.008 C 123.056 282.931,120.137 282.873,120.947 281.562 C 121.107 281.303,121.036 281.239,120.772 281.403 C 119.932 281.922,116.586 279.563,117.065 278.789 C 117.208 278.557,117.112 278.516,116.831 278.690 C 116.046 279.175,113.674 275.396,113.101 272.746 C 112.294 269.011,112.796 131.381,113.624 129.509 C 114.070 128.501,114.613 127.787,114.830 127.921 C 115.050 128.057,115.135 127.929,115.021 127.633 C 114.757 126.946,117.123 124.513,119.245 123.292 C 122.509 121.412,121.648 121.435,183.459 121.561 C 215.504 121.626,241.684 121.592,241.637 121.484 C 241.483 121.134,243.301 119.604,243.562 119.864 C 243.701 120.003,243.771 119.941,243.717 119.727 C 243.663 119.512,243.759 118.657,243.931 117.828 C 244.349 115.811,243.477 114.002,241.676 113.147 C 240.147 112.422,126.653 112.218,122.364 112.933 M269.191 117.539 C 268.896 117.726,268.728 118.098,268.817 118.367 C 268.937 118.726,269.148 118.687,269.618 118.217 C 270.178 117.657,270.278 117.652,270.440 118.172 C 270.579 118.622,270.610 118.606,270.566 118.106 C 270.496 117.314,269.922 117.077,269.191 117.539 M185.352 145.080 C 179.936 146.318,175.406 148.856,171.122 153.053 L 168.604 155.520 165.587 155.864 C 153.278 157.268,141.406 168.755,141.406 179.261 C 141.406 179.958,140.933 180.773,140.014 181.662 C 134.394 187.095,131.478 193.878,131.457 201.563 C 131.439 208.368,131.626 209.244,134.287 214.844 C 134.848 216.025,135.320 217.200,135.334 217.453 C 135.349 217.706,135.519 218.058,135.712 218.234 C 135.912 218.417,135.942 218.345,135.782 218.066 C 135.627 217.798,135.585 217.578,135.687 217.578 C 135.926 217.578,137.690 220.412,137.693 220.801 C 137.694 220.962,137.871 221.102,138.086 221.112 C 138.939 221.151,141.055 223.635,140.863 224.371 C 140.727 224.890,140.792 224.989,141.080 224.701 C 141.368 224.413,142.269 224.790,144.086 225.959 C 150.833 230.302,151.930 230.547,166.016 230.860 C 172.354 231.001,178.194 231.303,178.994 231.531 C 181.119 232.135,183.415 233.440,183.291 233.972 C 183.232 234.225,183.336 234.339,183.522 234.224 C 184.031 233.909,186.206 236.326,186.890 237.966 C 187.355 239.081,187.542 241.684,187.713 249.439 C 187.984 261.692,188.724 263.358,193.347 262.113 C 196.426 261.284,196.528 260.792,196.464 247.061 C 196.408 235.161,196.413 235.087,197.284 234.160 C 197.766 233.647,198.338 233.337,198.555 233.471 C 198.771 233.605,198.837 233.534,198.701 233.314 C 198.292 232.652,214.776 216.687,215.556 216.989 C 220.102 218.751,225.940 216.641,227.178 212.787 C 227.300 212.408,227.524 212.175,227.676 212.268 C 227.827 212.362,227.961 210.871,227.972 208.955 C 227.984 207.038,227.916 205.547,227.822 205.641 C 227.729 205.735,227.099 205.092,226.424 204.212 C 223.883 200.901,219.135 199.262,216.446 200.767 C 215.726 201.169,205.708 191.576,206.132 190.890 C 206.263 190.678,206.203 190.608,205.997 190.735 C 205.792 190.862,204.350 189.685,202.794 188.120 L 199.964 185.273 200.631 182.874 C 202.738 175.298,195.107 168.700,188.086 172.027 C 184.234 173.853,182.835 176.194,182.821 180.839 L 182.813 183.748 180.391 186.010 C 178.625 187.660,177.875 188.141,177.620 187.788 C 177.376 187.451,177.333 187.502,177.479 187.960 C 177.623 188.411,176.692 189.614,174.494 191.818 L 171.300 195.021 167.935 194.953 C 164.563 194.885,163.296 195.189,161.284 196.551 C 160.723 196.932,160.123 197.116,159.952 196.961 C 159.781 196.806,159.774 196.910,159.937 197.193 C 160.106 197.485,159.971 197.995,159.623 198.379 C 157.213 201.043,157.393 207.058,159.961 209.626 C 160.287 209.952,160.436 210.425,160.293 210.676 C 160.149 210.927,160.170 211.007,160.340 210.854 C 160.798 210.441,162.176 211.295,161.865 211.799 C 161.718 212.036,161.771 212.123,161.983 211.992 C 162.194 211.862,163.232 211.974,164.289 212.242 C 170.362 213.784,175.287 210.084,175.699 203.670 C 175.874 200.944,176.070 200.550,177.148 200.768 C 177.363 200.811,177.401 200.709,177.233 200.541 C 176.832 200.139,184.400 192.548,184.896 192.854 C 185.106 192.984,185.161 192.902,185.020 192.673 C 184.672 192.110,188.280 188.978,188.970 189.243 C 189.271 189.359,189.865 189.453,190.289 189.453 C 190.753 189.453,190.955 189.625,190.795 189.884 C 190.649 190.121,190.996 190.009,191.568 189.635 C 192.577 188.973,192.638 188.980,193.667 189.885 C 196.122 192.042,199.167 195.470,198.946 195.828 C 198.815 196.041,198.885 196.105,199.102 195.971 C 199.730 195.582,208.585 204.625,208.337 205.403 C 208.184 205.885,208.224 205.922,208.494 205.548 C 209.238 204.513,209.730 205.991,209.569 208.775 L 209.413 211.466 206.762 214.137 C 205.284 215.627,203.883 216.722,203.597 216.612 C 203.315 216.504,203.168 216.550,203.269 216.715 C 203.568 217.198,202.178 218.786,201.348 218.908 C 200.929 218.969,200.586 219.231,200.586 219.489 C 200.586 219.747,198.581 221.954,196.131 224.394 L 191.676 228.829 189.748 227.305 C 188.688 226.467,187.650 225.781,187.442 225.781 C 187.234 225.781,187.190 225.562,187.344 225.293 C 187.499 225.024,187.497 224.920,187.339 225.060 C 187.182 225.201,185.960 224.820,184.624 224.215 C 183.287 223.609,181.501 222.983,180.654 222.824 C 179.470 222.602,179.287 222.475,179.862 222.273 C 180.273 222.129,175.174 221.968,168.531 221.915 C 155.381 221.811,154.382 221.668,149.907 219.243 C 147.604 217.995,143.191 213.493,143.591 212.799 C 143.747 212.527,143.731 212.435,143.555 212.595 C 143.069 213.036,142.155 211.492,142.420 210.676 C 142.590 210.152,142.553 210.100,142.279 210.481 C 140.725 212.651,139.504 201.189,140.809 196.680 C 141.777 193.338,145.682 187.590,146.600 188.157 C 146.817 188.292,146.887 188.227,146.755 188.013 C 146.623 187.799,147.120 187.037,147.859 186.321 C 149.251 184.972,149.797 183.733,150.181 181.055 C 150.853 176.367,151.598 174.362,153.774 171.398 C 154.665 170.185,155.381 169.564,155.734 169.699 C 156.040 169.817,156.199 169.765,156.087 169.584 C 155.588 168.776,159.355 166.372,162.575 165.443 C 164.955 164.756,169.403 164.699,170.224 165.344 C 170.595 165.637,170.659 165.573,170.475 165.094 C 170.316 164.681,170.431 164.453,170.798 164.453 C 171.111 164.453,172.079 163.937,172.949 163.307 C 173.819 162.677,174.665 162.281,174.828 162.428 C 174.992 162.575,175.016 162.504,174.883 162.271 C 174.576 161.731,177.475 158.865,177.919 159.269 C 178.101 159.435,178.139 159.376,178.004 159.138 C 177.374 158.033,183.710 154.431,187.812 153.563 C 192.705 152.528,199.724 154.265,203.516 157.451 C 204.053 157.902,204.285 158.165,204.031 158.035 C 203.777 157.906,203.465 157.969,203.337 158.176 C 203.205 158.389,203.470 158.482,203.946 158.391 C 204.905 158.206,208.340 161.181,207.932 161.842 C 207.794 162.065,207.891 162.107,208.160 161.941 C 208.417 161.782,208.853 161.839,209.129 162.067 C 209.428 162.316,211.974 162.499,215.459 162.524 C 222.172 162.571,223.848 162.856,227.324 164.543 C 231.393 166.518,236.294 171.878,235.703 173.706 C 235.523 174.261,235.558 174.295,235.865 173.862 C 236.337 173.198,237.791 177.538,238.136 180.642 C 238.459 183.537,239.464 185.144,243.568 189.322 C 246.502 192.309,247.230 193.268,247.051 193.912 C 246.885 194.508,246.924 194.581,247.198 194.186 C 247.499 193.750,247.666 193.819,248.050 194.538 C 248.468 195.318,248.446 195.399,247.877 195.181 C 247.493 195.034,247.323 195.090,247.464 195.317 C 247.595 195.529,247.962 195.703,248.279 195.703 C 250.615 195.703,251.859 205.725,250.194 211.123 C 249.170 214.440,245.514 219.988,244.588 219.629 C 244.449 219.575,244.336 219.745,244.336 220.006 C 244.336 220.268,242.930 221.403,241.211 222.530 C 239.492 223.656,237.682 224.863,237.189 225.211 C 236.696 225.560,235.472 227.105,234.469 228.645 C 231.808 232.734,229.300 235.632,228.641 235.379 C 228.335 235.261,228.184 235.326,228.305 235.521 C 228.592 235.986,226.867 237.156,224.414 238.162 C 221.576 239.325,220.727 239.467,216.504 239.481 C 209.412 239.504,206.871 241.429,208.352 245.654 C 208.607 246.383,208.563 246.516,208.147 246.275 C 207.835 246.095,207.751 246.115,207.943 246.324 C 208.122 246.520,208.385 246.681,208.529 246.683 C 209.006 246.688,210.545 247.919,210.336 248.128 C 210.222 248.241,210.619 248.256,211.217 248.160 C 212.103 248.018,212.196 248.070,211.719 248.441 C 211.244 248.810,211.317 248.846,212.109 248.634 C 212.646 248.491,214.990 248.305,217.318 248.221 C 227.195 247.866,234.985 243.439,240.353 235.131 C 241.964 232.636,242.726 231.896,245.757 229.883 C 251.996 225.739,256.397 220.176,258.499 213.777 C 259.649 210.278,259.989 197.790,258.960 196.875 C 258.839 196.768,258.319 195.625,257.805 194.336 C 257.290 193.047,255.953 190.645,254.834 188.997 C 253.715 187.350,252.917 185.886,253.060 185.742 C 253.203 185.599,253.129 185.540,252.896 185.612 C 252.075 185.864,247.315 180.542,246.887 178.894 C 246.665 178.041,246.297 176.597,246.068 175.684 C 243.339 164.794,232.129 153.963,223.535 153.911 C 223.052 153.909,222.657 153.774,222.657 153.613 C 222.657 153.452,220.498 153.374,217.858 153.439 L 213.058 153.558 211.217 152.152 C 210.204 151.378,209.375 150.578,209.375 150.373 C 209.375 150.168,209.208 150.000,209.004 150.000 C 208.255 150.000,204.311 147.381,204.592 147.070 C 204.752 146.894,204.700 146.854,204.476 146.980 C 204.252 147.107,202.582 146.675,200.765 146.019 C 196.781 144.582,189.476 144.137,185.352 145.080 M225.033 164.164 C 225.122 164.220,225.573 164.583,226.035 164.971 C 226.665 165.499,226.949 165.556,227.170 165.199 C 227.347 164.914,227.302 164.824,227.058 164.974 C 226.834 165.113,226.434 164.964,226.168 164.644 C 225.903 164.324,225.502 164.063,225.278 164.063 C 225.053 164.063,224.943 164.108,225.033 164.164 M103.216 270.703 C 103.216 271.455,103.296 271.763,103.394 271.387 C 103.493 271.011,103.493 270.396,103.394 270.020 C 103.296 269.644,103.216 269.951,103.216 270.703 " stroke="none" fill="#000000" fill-rule="evenodd"></path></g></svg>